<svg aria-roledescription="flowchart-v2" role="graphics-document document" viewBox="-50 -92 509.9453125 538.5" style="max-width: 509.945px; background-color: white;" xmlns:xlink="http://www.w3.org/1999/xlink" xmlns="http://www.w3.org/2000/svg" width="100%" id="my-svg"><style>#my-svg{font-family:"trebuchet ms",verdana,arial,sans-serif;font-size:16px;fill:#000000;}#my-svg .error-icon{fill:#552222;}#my-svg .error-text{fill:#552222;stroke:#552222;}#my-svg .edge-thickness-normal{stroke-width:2px;}#my-svg .edge-thickness-thick{stroke-width:3.5px;}#my-svg .edge-pattern-solid{stroke-dasharray:0;}#my-svg .edge-pattern-dashed{stroke-dasharray:3;}#my-svg .edge-pattern-dotted{stroke-dasharray:2;}#my-svg .marker{fill:#666;stroke:#666;}#my-svg .marker.cross{stroke:#666;}#my-svg svg{font-family:"trebuchet ms",verdana,arial,sans-serif;font-size:16px;}#my-svg .label{font-family:"trebuchet ms",verdana,arial,sans-serif;color:#000000;}#my-svg .cluster-label text{fill:#333;}#my-svg .cluster-label span,#my-svg p{color:#333;}#my-svg .label text,#my-svg span,#my-svg p{fill:#000000;color:#000000;}#my-svg .node rect,#my-svg .node circle,#my-svg .node ellipse,#my-svg .node polygon,#my-svg .node path{fill:#eee;stroke:#999;stroke-width:1px;}#my-svg .flowchart-label text{text-anchor:middle;}#my-svg .node .label{text-align:center;}#my-svg .node.clickable{cursor:pointer;}#my-svg .arrowheadPath{fill:#333333;}#my-svg .edgePath .path{stroke:#666;stroke-width:2.0px;}#my-svg .flowchart-link{stroke:#666;fill:none;}#my-svg .edgeLabel{background-color:white;text-align:center;}#my-svg .edgeLabel rect{opacity:0.5;background-color:white;fill:white;}#my-svg .labelBkg{background-color:rgba(255, 255, 255, 0.5);}#my-svg .cluster rect{fill:hsl(0, 0%, 98.9215686275%);stroke:#707070;stroke-width:1px;}#my-svg .cluster text{fill:#333;}#my-svg .cluster span,#my-svg p{color:#333;}#my-svg div.mermaidTooltip{position:absolute;text-align:center;max-width:200px;padding:2px;font-family:"trebuchet ms",verdana,arial,sans-serif;font-size:12px;background:hsl(-160, 0%, 93.3333333333%);border:1px solid #707070;border-radius:2px;pointer-events:none;z-index:100;}#my-svg .flowchartTitleText{text-anchor:middle;font-size:18px;fill:#000000;}#my-svg :root{--mermaid-font-family:"trebuchet ms",verdana,arial,sans-serif;}</style><g><marker orient="auto" markerHeight="12" markerWidth="12" markerUnits="userSpaceOnUse" refY="5" refX="6" viewBox="0 0 10 10" class="marker flowchart" id="my-svg_flowchart-pointEnd"><path style="stroke-width: 1; stroke-dasharray: 1, 0;" class="arrowMarkerPath" d="M 0 0 L 10 5 L 0 10 z"/></marker><marker orient="auto" markerHeight="12" markerWidth="12" markerUnits="userSpaceOnUse" refY="5" refX="4.5" viewBox="0 0 10 10" class="marker flowchart" id="my-svg_flowchart-pointStart"><path style="stroke-width: 1; stroke-dasharray: 1, 0;" class="arrowMarkerPath" d="M 0 5 L 10 10 L 10 0 z"/></marker><marker orient="auto" markerHeight="11" markerWidth="11" markerUnits="userSpaceOnUse" refY="5" refX="11" viewBox="0 0 10 10" class="marker flowchart" id="my-svg_flowchart-circleEnd"><circle style="stroke-width: 1; stroke-dasharray: 1, 0;" class="arrowMarkerPath" r="5" cy="5" cx="5"/></marker><marker orient="auto" markerHeight="11" markerWidth="11" markerUnits="userSpaceOnUse" refY="5" refX="-1" viewBox="0 0 10 10" class="marker flowchart" id="my-svg_flowchart-circleStart"><circle style="stroke-width: 1; stroke-dasharray: 1, 0;" class="arrowMarkerPath" r="5" cy="5" cx="5"/></marker><marker orient="auto" markerHeight="11" markerWidth="11" markerUnits="userSpaceOnUse" refY="5.2" refX="12" viewBox="0 0 11 11" class="marker cross flowchart" id="my-svg_flowchart-crossEnd"><path style="stroke-width: 2; stroke-dasharray: 1, 0;" class="arrowMarkerPath" d="M 1,1 l 9,9 M 10,1 l -9,9"/></marker><marker orient="auto" markerHeight="11" markerWidth="11" markerUnits="userSpaceOnUse" refY="5.2" refX="-1" viewBox="0 0 11 11" class="marker cross flowchart" id="my-svg_flowchart-crossStart"><path style="stroke-width: 2; stroke-dasharray: 1, 0;" class="arrowMarkerPath" d="M 1,1 l 9,9 M 10,1 l -9,9"/></marker><g class="root"><g class="clusters"><g id="db:target_db/tables/" class="cluster default flowchart-label"><rect height="376.5" width="154.359375" y="0" x="255.5859375" ry="0" rx="0" style=""/><g transform="translate(332.765625, 0)" class="cluster-label"><text style=""><tspan class="row" x="0" dy="1em" xml:space="preserve">db:target_db/tables/</tspan></text></g></g><g id="subGraph2" class="cluster default flowchart-label"><rect height="396.5" width="206.390625" y="0" x="0" ry="0" rx="0" style=""/><g transform="translate(103.1953125, 0)" class="cluster-label"><text style=""><tspan class="row" x="0" dy="1em" xml:space="preserve">fs:./data sources/</tspan></text></g></g><g id="transactions.xlsx/sheets/" class="cluster default flowchart-label"><rect height="138.5" width="182.609375" y="79.5" x="11.890625" ry="0" rx="0" style=""/><g transform="translate(103.1953125, 79.5)" class="cluster-label"><text style=""><tspan class="row" x="0" dy="1em" xml:space="preserve">transactions.xlsx/sheets/</tspan></text></g></g><g id="customers.xlsx/sheets/" class="cluster default flowchart-label"><rect height="138.5" width="168.15625" y="238" x="19.1171875" ry="0" rx="0" style=""/><g transform="translate(103.1953125, 238)" class="cluster-label"><text style=""><tspan class="row" x="0" dy="1em" xml:space="preserve">customers.xlsx/sheets/</tspan></text></g></g></g><g class="edgePaths"><path marker-end="url(#my-svg_flowchart-pointEnd)" style="fill:none;" class="edge-thickness-normal edge-pattern-solid flowchart-link LS-a1 LE-b1" id="L-a1-b1-0" d="M156.390625,40L160.55729166666666,40C164.72395833333334,40,173.05729166666666,40,181.390625,40C189.72395833333334,40,198.05729166666666,40,206.390625,40C214.72395833333334,40,223.05729166666666,40,231.390625,40C239.72395833333334,40,248.05729166666666,40,257.59973958333336,40C267.14218750000003,40,277.89375,40,283.26953125,40L288.6453125,40"/><path marker-end="url(#my-svg_flowchart-pointEnd)" style="fill:none;" class="edge-thickness-normal edge-pattern-solid flowchart-link LS-z1 LE-d1" id="L-z1-d1-0" d="M138.88671875,119.5L145.970703125,119.5C153.0546875,119.5,167.22265625,119.5,178.47330729166666,119.5C189.72395833333334,119.5,198.05729166666666,119.5,206.390625,119.5C214.72395833333334,119.5,223.05729166666666,119.5,231.390625,119.5C239.72395833333334,119.5,248.05729166666666,119.5,256.7936704290614,121.26506064581314C265.53004919145616,123.03012129162626,274.6694733829123,126.56024258325255,279.2391854786404,128.32530322906567L283.8088975743685,130.09036387487882"/><path marker-end="url(#my-svg_flowchart-pointEnd)" style="fill:none;" class="edge-thickness-normal edge-pattern-solid flowchart-link LS-y1 LE-d1" id="L-y1-d1-0" d="M141.765625,178.5L148.36979166666666,178.5C154.97395833333334,178.5,168.18229166666666,178.5,178.953125,178.5C189.72395833333334,178.5,198.05729166666666,178.5,206.390625,178.5C214.72395833333334,178.5,223.05729166666666,178.5,231.390625,178.5C239.72395833333334,178.5,248.05729166666666,178.5,256.7936704290614,176.73493935418685C265.53004919145616,174.96987870837373,274.6694733829123,171.43975741674748,279.2391854786404,169.67469677093433L283.8088975743685,167.90963612512118"/><path marker-end="url(#my-svg_flowchart-pointEnd)" style="fill:none;" class="edge-thickness-normal edge-pattern-solid flowchart-link LS-x1 LE-u1" id="L-x1-u1-0" d="M135.125,278L142.8359375,278C150.546875,278,165.96875,278,177.84635416666666,278C189.72395833333334,278,198.05729166666666,278,206.390625,278C214.72395833333334,278,223.05729166666666,278,231.390625,278C239.72395833333334,278,248.05729166666666,278,258.74817708333336,278C269.43906250000003,278,282.4875,278,289.01171875,278L295.5359375,278"/><path marker-end="url(#my-svg_flowchart-pointEnd)" style="fill:none;" class="edge-thickness-normal edge-pattern-solid flowchart-link LS-w1 LE-v1" id="L-w1-v1-0" d="M135.125,337L142.8359375,337C150.546875,337,165.96875,337,177.84635416666666,337C189.72395833333334,337,198.05729166666666,337,206.390625,337C214.72395833333334,337,223.05729166666666,337,231.390625,337C239.72395833333334,337,248.05729166666666,337,258.74817708333336,337C269.43906250000003,337,282.4875,337,289.01171875,337L295.5359375,337"/></g><g class="edgeLabels"><g class="edgeLabel"><g transform="translate(0, 0)" class="label"><text style=""><tspan class="row" x="0" dy="1em" xml:space="preserve"/></text></g></g><g class="edgeLabel"><g transform="translate(0, 0)" class="label"><text style=""><tspan class="row" x="0" dy="1em" xml:space="preserve"/></text></g></g><g class="edgeLabel"><g transform="translate(0, 0)" class="label"><text style=""><tspan class="row" x="0" dy="1em" xml:space="preserve"/></text></g></g><g class="edgeLabel"><g transform="translate(0, 0)" class="label"><text style=""><tspan class="row" x="0" dy="1em" xml:space="preserve"/></text></g></g><g class="edgeLabel"><g transform="translate(0, 0)" class="label"><text style=""><tspan class="row" x="0" dy="1em" xml:space="preserve"/></text></g></g></g><g class="nodes"><g transform="translate(332.765625, 40)" id="flowchart-b1-6" class="node default default flowchart-label"><rect height="34" width="77.640625" y="-17" x="-38.8203125" ry="0" rx="0" style="" class="basic label-container"/><g transform="translate(0, -9.5)" style="" class="label"><rect/><text style=""><tspan class="row" x="0" dy="1em" xml:space="preserve">products</tspan></text></g></g><g transform="translate(332.765625, 149)" id="flowchart-d1-8" class="node default default flowchart-label"><rect height="34" width="102.75" y="-17" x="-51.375" ry="0" rx="0" style="" class="basic label-container"/><g transform="translate(0, -9.5)" style="" class="label"><rect/><text style=""><tspan class="row" x="0" dy="1em" xml:space="preserve">transactions</tspan></text></g></g><g transform="translate(332.765625, 278)" id="flowchart-u1-12" class="node default default flowchart-label"><rect height="34" width="63.859375" y="-17" x="-31.9296875" ry="0" rx="0" style="" class="basic label-container"/><g transform="translate(0, -9.5)" style="" class="label"><rect/><text style=""><tspan class="row" x="0" dy="1em" xml:space="preserve">sold to</tspan></text></g></g><g transform="translate(332.765625, 337)" id="flowchart-v1-14" class="node default default flowchart-label"><rect height="34" width="63.859375" y="-17" x="-31.9296875" ry="0" rx="0" style="" class="basic label-container"/><g transform="translate(0, -9.5)" style="" class="label"><rect/><text style=""><tspan class="row" x="0" dy="1em" xml:space="preserve">ship to</tspan></text></g></g><g transform="translate(103.1953125, 40)" id="flowchart-a1-0" class="node default default flowchart-label"><rect height="34" width="106.390625" y="-17" x="-53.1953125" ry="0" rx="0" style="" class="basic label-container"/><g transform="translate(0, -9.5)" style="" class="label"><rect/><text style=""><tspan class="row" x="0" dy="1em" xml:space="preserve">products.csv</tspan></text></g></g><g transform="translate(103.1953125, 278)" id="flowchart-x1-3" class="node default default flowchart-label"><rect height="34" width="63.859375" y="-17" x="-31.9296875" ry="0" rx="0" style="" class="basic label-container"/><g transform="translate(0, -9.5)" style="" class="label"><rect/><text style=""><tspan class="row" x="0" dy="1em" xml:space="preserve">sold to</tspan></text></g></g><g transform="translate(103.1953125, 337)" id="flowchart-w1-4" class="node default default flowchart-label"><rect height="34" width="63.859375" y="-17" x="-31.9296875" ry="0" rx="0" style="" class="basic label-container"/><g transform="translate(0, -9.5)" style="" class="label"><rect/><text style=""><tspan class="row" x="0" dy="1em" xml:space="preserve">ship to</tspan></text></g></g><g transform="translate(103.1953125, 119.5)" id="flowchart-z1-1" class="node default default flowchart-label"><rect height="34" width="71.3828125" y="-17" x="-35.69140625" ry="0" rx="0" style="" class="basic label-container"/><g transform="translate(0, -9.5)" style="" class="label"><rect/><text style=""><tspan class="row" x="0" dy="1em" xml:space="preserve">january</tspan></text></g></g><g transform="translate(103.1953125, 178.5)" id="flowchart-y1-2" class="node default default flowchart-label"><rect height="34" width="77.140625" y="-17" x="-38.5703125" ry="0" rx="0" style="" class="basic label-container"/><g transform="translate(0, -9.5)" style="" class="label"><rect/><text style=""><tspan class="row" x="0" dy="1em" xml:space="preserve">february</tspan></text></g></g></g></g></g><text class="flowchartTitleText" y="-25" x="204.97265625">Example dataflow</text></svg>